<svg width="992" height="1500" viewBox="0 0 992 1500" fill="none" xmlns="http://www.w3.org/2000/svg">
<mask id="mask0_12_3" style="mask-type:luminance" maskUnits="userSpaceOnUse" x="202" y="212" width="587" height="1003">
<path d="M202.684 212.228H788.347V1214.36H202.684V212.228Z" fill="white"/>
</mask>
<g mask="url(#mask0_12_3)">
<path d="M788.346 661.614V690.771H723.26C722.9 678.554 722.604 666.299 722.372 654.044L788.346 661.614Z" fill="#5a3939"/>
<path d="M788.204 212.223V241.38L722.36 248.936C722.604 236.643 722.9 224.4 723.26 212.223H788.204Z" fill="#5a3939"/>
<path d="M734.37 1083.56C734.37 1015.49 706.642 978.967 666.826 978.967C650.401 978.967 629.585 985.751 601.201 1010.03V1154.68C622.878 1175.52 644.505 1184.3 664.278 1184.3C702.059 1184.3 734.37 1151.63 734.37 1083.56ZM681.038 948.844C737.357 948.844 782.013 996.963 782.013 1078.98C782.013 1160.85 734.937 1214.36 672.993 1214.36C647.633 1214.36 622.634 1205.59 599.823 1176.94L595.434 1212.83L515.674 1207.42V1188.51L555.541 1181.08C556.081 1154.49 556.365 1119.68 556.365 1096.08V863.331L512.958 858.104V839.323L594.237 815.47L601.729 819.768L599.605 894.998V989.614C624.913 961.46 652.318 948.844 681.038 948.844Z" fill="#5a3939"/>
<path d="M687.333 212.223H723.261C722.901 224.4 722.605 236.643 722.36 248.936L694.722 252.103H687.333V212.223Z" fill="#5a3939"/>
<path d="M723.261 690.77H652.782C653.142 678.593 653.438 666.364 653.683 654.07L679.351 650.877H694.722L722.373 654.044C722.605 666.3 722.901 678.554 723.261 690.77Z" fill="#5a3939"/>
<path d="M722.373 654.044L694.722 650.878H679.351L653.683 654.07C654.906 593.439 654.893 531.636 654.919 469.963L655.022 290.76L685.466 212.223H687.333V252.103H694.722L722.359 248.936C721.123 309.58 721.123 371.499 721.123 433.88V469.1C721.123 530.568 721.123 592.487 722.373 654.044Z" fill="#5a3939"/>
<path d="M685.466 212.223L655.022 290.76L655.073 212.223H685.466Z" fill="#5a3939"/>
<path d="M655.073 212.223L655.021 290.76L499.981 690.771H463.771L300.337 290.747L298.007 212.223H335.235L495.386 605.939L483.568 636.627H507.872L495.386 605.939L647.028 212.223H655.073Z" fill="#5a3939"/>
<path d="M593.181 661.614L653.684 654.07C653.438 666.364 653.142 678.592 652.782 690.771H593.181V661.614Z" fill="#5a3939"/>
<path d="M495.386 605.938L507.873 636.628H483.569L495.386 605.938Z" fill="#5a3939"/>
<path d="M433.571 1083.56C433.571 1015.49 405.843 978.967 366.027 978.967C349.601 978.967 328.785 985.751 300.401 1010.03V1154.68C322.079 1175.52 343.705 1184.3 363.491 1184.3C401.273 1184.3 433.571 1151.63 433.571 1083.56ZM380.252 948.844C436.571 948.844 481.213 996.963 481.213 1078.98C481.213 1160.85 434.137 1214.36 372.205 1214.36C346.833 1214.36 321.835 1205.59 299.024 1176.94L294.635 1212.83L214.887 1207.42V1188.51L254.741 1181.08C255.295 1154.49 255.565 1119.68 255.565 1096.08V863.331L212.157 858.104V839.323L293.437 815.47L300.929 819.768L298.805 894.998V989.614C324.113 961.46 351.519 948.844 380.252 948.844Z" fill="#5a3939"/>
<path d="M363.079 661.614V690.771H304.392V652.628L363.079 661.614Z" fill="#5a3939"/>
<path d="M304.392 652.628V690.771H267.344V652.435L278.273 650.878H292.935L304.392 652.628Z" fill="#5a3939"/>
<path d="M304.392 427.276V652.628L292.935 650.878H278.273L267.344 652.435V249.387L284.297 251.498L300.337 290.747L304.392 427.276Z" fill="#5a3939"/>
<path d="M298.007 212.223L300.336 290.747L284.298 251.497L289.215 252.103H297.982L297.916 212.223H298.007Z" fill="#5a3939"/>
<path d="M297.917 212.223L297.981 252.103H289.214L284.297 251.498L268.258 212.223H297.917Z" fill="#5a3939"/>
<path d="M284.297 251.498L267.344 249.387V212.223H268.257L284.297 251.498Z" fill="#5a3939"/>
<path d="M267.344 652.435V690.77H202.684V661.614L267.344 652.435Z" fill="#5a3939"/>
<path d="M267.344 212.223V249.387L203.044 241.38V212.223H267.344Z" fill="#5a3939"/>
</g>
<path d="M845.154 747.617H150.201" stroke="#5a3939" stroke-width="25.028"/>
<path d="M495.953 12.514C762.961 12.514 979.405 228.958 979.405 495.953V1003.08C979.405 1270.07 762.961 1486.52 495.953 1486.52C228.957 1486.52 12.514 1270.07 12.514 1003.08V495.953C12.514 228.958 228.957 12.514 495.953 12.514Z" stroke="#5a3939" stroke-width="25.028" stroke-linecap="round"/>
</svg>
